<svg xmlns="http://www.w3.org/2000/svg" width="900px" height="900px">
  <g fill="none" fill-rule="evenodd">
    <path fill="#C6CACE" d="M387.931034,17.1775862 C183.103448,17.1775862 17.1775862,183.103448 17.1775862,387.931034 C17.1775862,592.758621 183.103448,758.684483 387.931034,758.684483 L388.055172,758.684483 C382.344828,758.684483 243.744828,755.503448 239.431034,604.194828 C239.431034,604.194828 285.253448,528.827586 316.753448,509.12069 C337.761337,495.049987 362.660765,487.938967 387.931034,488.793103 C413.267303,487.89595 438.242367,495.002985 459.310345,509.105172 C490.810345,528.812069 536.508621,604.17931 536.508621,604.17931 C532.660345,748.117241 407.296552,757.955172 390.165517,758.622414 C593.844828,757.458621 758.684483,591.967241 758.684483,387.931034 C758.684483,183.103448 592.758621,17.1775862 387.931034,17.1775862 Z" transform="translate(62.069 62.069)"/>
    <path fill="#00BDE3" d="M379.939655,17.1775862 L379.939655,18.0931034 C242.627586,25.9603448 133.091379,132.268966 124.975862,265.531034 C117.868966,382.360345 190.365517,485.875862 296.860345,526.32931 C302.781758,519.81617 309.46012,514.033812 316.753448,509.105172 C337.763164,495.039946 362.66245,487.934394 387.931034,488.793103 C413.267303,487.89595 438.242367,495.002985 459.310345,509.105172 C466.437673,513.960025 472.964261,519.642792 478.753448,526.034483 C579.77069,487.675862 651.367241,392.322414 651.367241,280.691379 C651.367241,135.124138 529.836207,17.1775862 379.939655,17.1775862 Z" transform="translate(62.069 62.069)"/>
    <path fill="#FFF" d="M388.334483,758.684483 C388.334483,758.684483 243.9,758.684483 239.368966,604.163793 C239.368966,604.163793 285.191379,528.812069 316.691379,509.105172 C337.718473,495.027394 362.641463,487.921275 387.931034,488.793103 C413.267303,487.89595 438.242367,495.002985 459.310345,509.105172 C490.810345,528.812069 536.508621,604.163793 536.508621,604.163793 C532.381034,758.684483 388.17931,758.684483 388.17931,758.684483 L388.334483,758.684483 Z" transform="translate(62.069 62.069)"/>
    <path fill="#112F4E" fill-rule="nonzero" d="M775.862069,387.931034 C775.862069,179.782759 611.068966,9.46551724 405.108621,0.434482759 C404.208621,0.434482759 403.293103,0.434482759 402.393103,0.434482759 C397.737931,0.186206897 393.082759,0.0775862069 388.427586,0.0775862069 L387.931034,0.0775862069 C382.17931,0.0775862069 376.458621,0.222413793 370.768966,0.512068966 C164.793103,9.46551724 0,179.782759 0,387.931034 C0,601.836207 174.025862,775.862069 387.931034,775.862069 L388.35,775.862069 L389.777586,775.862069 C602.82931,774.806897 775.862069,601.215517 775.862069,387.931034 Z M687.894828,334.318966 C687.894828,441.387931 631.489655,535.375862 546.905172,588.475862 C535.077981,569.606696 522.242113,551.38888 508.453448,533.901724 C632.431311,475.017681 695.557854,335.040008 657.62069,203.136207 C677.582985,243.983276 687.938401,288.854976 687.894828,334.318966 Z M388.241379,741.506897 C381.32069,741.42931 263.544828,738.201724 256.825862,608.741379 C271.039655,586.055172 304.432759,537.082759 326.312069,523.396552 C344.314896,511.264233 365.70997,505.172316 387.403448,506.001724 L388.598276,506.001724 C410.468498,505.207875 432.023437,511.398262 450.139655,523.675862 C471.6,537.098276 504.9,586.07069 519.067241,608.741379 C512.658621,738.263793 394.991379,741.42931 388.241379,741.506897 Z M194.710345,248.539655 C218.275317,225.194506 251.039805,213.601444 284.043103,216.931034 C318.941082,220.315036 351.557546,235.794408 376.246552,260.689655 L388.381034,272.839655 L400.531034,260.689655 C446.67931,214.137931 529.324138,196.215517 581.725862,248.555172 C629.802853,296.641347 631.961671,373.902508 586.644828,424.598276 C585.27931,426.662069 583.898276,428.725862 582.3,430.805172 C556.537918,464.192992 522.607548,490.379606 483.781034,506.839655 C479.169542,502.401032 474.150901,498.405862 468.791379,494.906897 C444.980091,478.85847 416.70653,470.744621 388.008621,471.724138 C359.486514,470.78149 331.384734,478.790416 307.644828,494.627586 C302.293595,498.120558 297.275807,502.099467 292.655172,506.513793 C253.735477,490.102702 219.718145,463.910852 193.903448,430.47931 L191.156897,426.724138 C178.190425,412.810056 168.540813,396.142062 162.931034,377.968966 C148.527153,332.276348 160.782072,282.36508 194.710345,248.539655 Z M120.584483,198.62069 C80.2925327,331.279907 143.094924,473.457818 268.293103,533.017241 C254.166298,550.764145 241.039065,569.284215 228.972414,588.491379 C144.310345,535.344828 87.9672414,441.356897 87.9672414,334.318966 C87.9424254,287.141727 99.1215381,240.633002 120.584483,198.62069 Z M34.3551724,387.931034 C34.318441,336.116677 45.7374832,284.934993 67.7948276,238.05 C58.3899401,269.253288 53.6115219,301.667066 53.612069,334.256897 C53.612069,459 122.306897,567.931034 223.836207,625.391379 C228.491379,666.387931 242.891379,696.305172 261.496552,717.998276 C128.793103,667.07069 34.3551724,538.355172 34.3551724,387.931034 Z M514.784483,717.905172 C533.265517,696.181034 547.556897,666.341379 552.025862,625.406897 C653.508621,567.993103 722.187931,459.031034 722.187931,334.318966 C722.197038,301.696838 717.413196,269.250363 707.989655,238.018966 C730.079202,284.906961 741.524961,336.100234 741.506897,387.931034 C741.506897,538.184483 647.255172,666.806897 514.784483,717.905172 Z" transform="translate(62.069 62.069)"/>
  </g>
</svg>