<svg xmlns="http://www.w3.org/2000/svg" data-name="Profile icon" viewBox="0 0 500 500">
  <path fill="#edeff0" d="M250,0C112.06,0,0,112.06,0,250,0,381.57,102,489.51,231.08,499.21l.77.07c6,.43,12,.72,18.15.72s12.15-.29,18.15-.72l.77-.07C398,489.51,500,381.57,500,250,500,112.06,387.94,0,250,0Z"/>
  <path fill="#dfe1e2" d="M250,21.74A228.24,228.24,0,0,1,412.94,409.82c-17.28-12.58-38.62-20.09-57.75-26.8-22.65-7.93-44.08-15.45-50-28.53a297.92,297.92,0,0,1-.77-29.89l0-4.25c9.65-9.18,21.79-28.56,25.95-46.47,7.17-3.82,15.94-13,18.57-35,1.32-10.9-1.79-19.35-6.13-25,5.87-20.16,17.54-71.21-2.91-104.15C331.26,95.83,318.2,87.05,301,83.58c-9.65-11.93-27.84-18.45-52.17-18.45-37,.69-64.06,12-80.5,33.65-19.38,25.55-23,64.14-10.91,114.77-4.49,5.66-7.73,14.23-6.39,25.35,2.64,22,11.38,31.14,18.55,35,4.16,17.93,16.28,37.31,25.95,46.49l0,4.14a300,300,0,0,1-.77,30c-5.95,13.11-27.49,20.71-50.25,28.75-19,6.71-40.23,14.22-57.46,26.64A228.24,228.24,0,0,1,250,21.74ZM250,0C112.06,0,0,112.06,0,250,0,381.57,102,489.51,231.08,499.21l.77.07c6,.43,12,.72,18.15.72s12.15-.29,18.15-.72l.77-.07C398,489.51,500,381.57,500,250,500,112.06,387.94,0,250,0Z"/>
</svg>