<svg xmlns="http://www.w3.org/2000/svg" data-name="COVID Heroes symbol" viewBox="0 0 500 500">
  <path fill="#c6cace" d="M250,11.07C118,11.07,11.07,118,11.07,250S118,488.93,250,488.93h.08c-3.68,0-93-2.05-95.78-99.56,0,0,29.53-48.57,49.83-61.27A77.71,77.71,0,0,1,250,315,77.75,77.75,0,0,1,296,328.09c20.3,12.7,49.75,61.27,49.75,61.27-2.48,92.76-83.27,99.1-94.31,99.53C382.7,488.14,488.93,381.49,488.93,250,488.93,118,382,11.07,250,11.07Z"/>
  <path fill="#00bde3" d="M244.85,11.07v.59C156.36,16.73,85.77,85.24,80.54,171.12c-4.58,75.29,42.14,142,110.77,168.07a71.22,71.22,0,0,1,12.82-11.1A77.71,77.71,0,0,1,250,315,77.75,77.75,0,0,1,296,328.09,70.31,70.31,0,0,1,308.53,339c65.1-24.72,111.24-86.17,111.24-158.11C419.77,87.08,341.45,11.07,244.85,11.07Z"/>
  <path fill="#fff" d="M250.26,488.93s-93.08,0-96-99.58c0,0,29.53-48.56,49.83-61.26A77.71,77.71,0,0,1,250,315h0A77.75,77.75,0,0,1,296,328.09c20.3,12.7,49.75,61.26,49.75,61.26-2.66,99.58-95.59,99.58-95.59,99.58Z"/>
  <path fill="#112f4e" d="M500,250C500,115.86,393.8,6.1,261.07.28c-.58,0-1.17,0-1.75,0-3-.16-6-.23-9-.23H250q-5.56,0-11.06.28C106.2,6.1,0,115.86,0,250,0,387.85,112.15,500,250,500h.27l.92,0C388.49,499.32,500,387.45,500,250Zm-56.69-34.55c0,69-36.35,129.57-90.86,163.79a399.3,399.3,0,0,0-24.78-35.17A180.69,180.69,0,0,0,423.8,130.91,192.12,192.12,0,0,1,443.31,215.45ZM250.2,477.86c-4.46-.05-80.36-2.13-84.69-85.56,9.16-14.62,30.68-46.18,44.78-55a65.94,65.94,0,0,1,39.37-11.21h.77a66.4,66.4,0,0,1,39.66,11.39c13.83,8.65,35.29,40.21,44.42,54.82C330.38,475.77,254.55,477.81,250.2,477.86ZM125.48,160.17a71.59,71.59,0,0,1,57.57-20.37A96.85,96.85,0,0,1,242.47,168l7.82,7.83,7.83-7.83c29.74-30,83-41.55,116.77-7.82a82.6,82.6,0,0,1,3.17,113.45c-.88,1.33-1.77,2.66-2.8,4a158.17,158.17,0,0,1-63.49,49,65.8,65.8,0,0,0-9.66-7.69A87.79,87.79,0,0,0,250.05,304a88.08,88.08,0,0,0-51.79,14.76,67,67,0,0,0-9.66,7.66,157.93,157.93,0,0,1-63.64-49L123.19,275A81.23,81.23,0,0,1,105,243.58,82.68,82.68,0,0,1,125.48,160.17ZM77.71,128A180.54,180.54,0,0,0,172.9,343.5a393.62,393.62,0,0,0-25.34,35.75C93,345,56.69,284.43,56.69,215.45A192,192,0,0,1,77.71,128ZM22.14,250a226.52,226.52,0,0,1,21.55-96.59,214.83,214.83,0,0,0-9.14,62c0,80.39,44.27,150.59,109.7,187.62,3,26.42,12.28,45.7,24.27,59.68C83,429.89,22.14,346.94,22.14,250ZM331.75,462.65c11.91-14,21.12-33.23,24-59.61,65.4-37,109.66-107.22,109.66-187.59a214.63,214.63,0,0,0-9.15-62.06A226.5,226.5,0,0,1,477.86,250C477.86,346.83,417.12,429.72,331.75,462.65Z"/>
</svg>